<svg width="60" height="60" viewBox="0 0 60 60" fill="none" xmlns="http://www.w3.org/2000/svg">
<path d="M50 28.3333H31.6667V9.99992C31.6667 9.55789 31.4911 9.13397 31.1785 8.82141C30.866 8.50885 30.4421 8.33325 30 8.33325C29.558 8.33325 29.1341 8.50885 28.8215 8.82141C28.509 9.13397 28.3334 9.55789 28.3334 9.99992V28.3333H10C9.55801 28.3333 9.13408 28.5088 8.82152 28.8214C8.50896 29.134 8.33337 29.5579 8.33337 29.9999C8.32514 30.2165 8.36345 30.4324 8.44569 30.6329C8.52794 30.8335 8.65222 31.0141 8.81016 31.1625C8.9681 31.311 9.15603 31.4239 9.36129 31.4936C9.56654 31.5633 9.78435 31.5882 10 31.5666H28.3334V49.9999C28.3334 50.4419 28.509 50.8659 28.8215 51.1784C29.1341 51.491 29.558 51.6666 30 51.6666C30.4421 51.6666 30.866 51.491 31.1785 51.1784C31.4911 50.8659 31.6667 50.4419 31.6667 49.9999V31.6666H50C50.4421 31.6666 50.866 31.491 51.1785 31.1784C51.4911 30.8659 51.6667 30.4419 51.6667 29.9999C51.6667 29.5579 51.4911 29.134 51.1785 28.8214C50.866 28.5088 50.4421 28.3333 50 28.3333Z" fill="white"/>
</svg>
